<svg version="1.0" xmlns="http://www.w3.org/2000/svg" viewBox="0 0 100 100">
<g fill="#259369">
<path d="M70 45 C67 42,67 37,70 33 C74 30,78 29,81 32 C86 36,83 43,79 45 C75 47,72 47,70 45"/>
<path d="M60 36 C54 34,53 27,58 22 C62 18,65 18,69 22 C71 24,71 25,71 28 C70 30,70 32,69 33 C67 35,62 37,60 36"/>
<path d="M43 29 C37 24,40 13,48 13 C55 13,57 21,53 27 C50 30,45 31,43 29"/>
</g>
<g fill="#e08b02">
<path d="M24 86 C22 84,21 75,22 68 L23 63 30 68 C37 72,40 73,41 70 C43 68,41 66,32 60 C27 57,24 55,24 54 C24 51,31 38,34 36 C41 31,53 33,62 42 C67 46,67 47,68 52 C68 54,68 58,67 59 C66 61,66 61,57 55 C47 49,45 49,44 54 C44 55,46 57,53 61 C58 64,62 67,62 67 C62 68,59 71,56 74 C45 85,29 91,24 86"/>
</g>
</svg>